<?xml version="1.0" encoding="UTF-8"?>
<svg id="_레이어_1" xmlns="http://www.w3.org/2000/svg" version="1.1" xmlns:xlink="http://www.w3.org/1999/xlink" viewBox="0 0 580 444">
  <!-- Generator: Adobe Illustrator 29.1.0, SVG Export Plug-In . SVG Version: 2.1.0 Build 142)  -->
  <defs>
    <style>
      .st0 {
        fill: url(#_무제_그라디언트);
      }

      .st1 {
        fill: #4dc380;
      }

      .st1, .st2 {
        fill-rule: evenodd;
      }

      .st3 {
        fill: #269e58;
      }

      .st4 {
        fill: url(#_무제_그라디언트_5);
      }

      .st5, .st2 {
        fill: #fff;
      }

      .st6 {
        fill: #f3f4f6;
      }

      .st7 {
        fill: #37b36b;
      }

      .st8 {
        fill: none;
      }

      .st9 {
        fill: url(#_무제_그라디언트_2);
      }

      .st10 {
        fill: url(#_무제_그라디언트_4);
      }

      .st11 {
        fill: #222327;
      }

      .st12 {
        fill: url(#_무제_그라디언트_6);
      }

      .st13 {
        clip-path: url(#clippath);
      }

      .st14 {
        fill: url(#_무제_그라디언트_3);
      }
    </style>
    <clipPath id="clippath">
      <rect class="st8" x=".5" width="579" height="444"/>
    </clipPath>
    <linearGradient id="_무제_그라디언트" data-name="무제 그라디언트" x1="358" y1="-784.377" x2="358" y2="-829.2" gradientTransform="translate(0 -662) scale(1 -1)" gradientUnits="userSpaceOnUse">
      <stop offset="0" stop-color="#ff37bb"/>
      <stop offset="1" stop-color="#ff68cc"/>
    </linearGradient>
    <linearGradient id="_무제_그라디언트_2" data-name="무제 그라디언트 2" x1="319.511" y1="-750.71" x2="328.418" y2="-773.028" gradientTransform="translate(0 -662) scale(1 -1)" gradientUnits="userSpaceOnUse">
      <stop offset="0" stop-color="#ff37bb"/>
      <stop offset="1" stop-color="#ff68cc"/>
    </linearGradient>
    <linearGradient id="_무제_그라디언트_3" data-name="무제 그라디언트 3" x1="372.778" y1="-740.789" x2="362.178" y2="-762.289" gradientTransform="translate(0 -662) scale(1 -1)" gradientUnits="userSpaceOnUse">
      <stop offset="0" stop-color="#ff37bb"/>
      <stop offset="1" stop-color="#ff68cc"/>
    </linearGradient>
    <linearGradient id="_무제_그라디언트_4" data-name="무제 그라디언트 4" x1="358" y1="-784.336" x2="358" y2="-829.2" gradientTransform="translate(0 -662) scale(1 -1)" gradientUnits="userSpaceOnUse">
      <stop offset="0" stop-color="#ff37bb"/>
      <stop offset="1" stop-color="#ff68cc"/>
    </linearGradient>
    <linearGradient id="_무제_그라디언트_5" data-name="무제 그라디언트 5" x1="319.511" y1="-750.71" x2="328.418" y2="-773.028" gradientTransform="translate(0 -662) scale(1 -1)" gradientUnits="userSpaceOnUse">
      <stop offset="0" stop-color="#ff37bb"/>
      <stop offset="1" stop-color="#ff68cc"/>
    </linearGradient>
    <linearGradient id="_무제_그라디언트_6" data-name="무제 그라디언트 6" x1="372.778" y1="-740.789" x2="362.178" y2="-762.289" gradientTransform="translate(0 -662) scale(1 -1)" gradientUnits="userSpaceOnUse">
      <stop offset="0" stop-color="#ff37bb"/>
      <stop offset="1" stop-color="#ff68cc"/>
    </linearGradient>
  </defs>
  <g class="st13">
    <g>
      <rect class="st6" x=".5" width="588" height="444"/>
      <rect class="st5" x="199.5" y="137" width="191" height="191" rx="39" ry="39"/>
      <rect class="st5" x="-67.5" y="137" width="191" height="191" rx="39" ry="39"/>
      <path class="st1" d="M256.7,158.9c-1.3,8.4-12,14.9-25,14.9s-24.4-7-25.1-15.8l-45.8,2.7c-3,.2-5.4,2.7-5.4,5.7v32.2c0,3.5,3.1,6.2,6.6,5.7l11.2-1.7c3.7-.6,7,2.5,6.6,6.2l-8.5,87.8c-.3,3.3,2.2,6.2,5.5,6.3l94.2,3c3.2.1,5.9-2.5,5.9-5.7v-87.7c0-3.6,3.4-6.4,6.9-5.6l12.6,2.6c3.6.7,6.9-2,6.9-5.6v-31.2c0-2.8-2-5.1-4.7-5.6l-42.1-8.1h.2v-.1Z"/>
      <path class="st7" d="M222.9,224.4c.6,2.4-1.4,4.9-3.5,5.4s-4.9-.9-5.4-3.3c-.6-2.4,1.1-5.6,3.2-6.1,2.8-.7,5.2,1.6,5.8,4h-.1Z"/>
      <path class="st7" d="M233.7,224.5c-.8,2.3.9,5,2.9,5.7s4.9-.4,5.8-2.7c.8-2.3-.5-5.7-2.5-6.4-2.7-1-5.4,1-6.2,3.4Z"/>
      <path class="st7" d="M243.8,238.1c-.4,7-7.4,9.3-16.7,8.8-9.4-.5-15.9-3.5-15.5-10.5.4-8.2,5.9-14.4,16.8-13.8,10.9.6,15.9,6.8,15.4,15.6h0v-.1Z"/>
      <path class="st3" d="M225.5,235c-.1,2-1.5,4.2-3.3,4.1-1.8,0-4.5-1.9-4.4-4.9.2-2.9,3.3-3.7,6.4-3,1.9.4,1.3,1.8,1.2,3.9h.1v-.1Z"/>
      <path class="st5" d="M222.2,234.5c0,.4,0,.7.7.8.6,0,.7-.3.8-.7,0-.4-.2-.7-.7-.8-.5,0-.7.3-.8.7Z"/>
      <path class="st3" d="M230,235.3c-.1,2,1,4.3,2.8,4.4,1.8,0,4.7-1.4,4.9-4.5.2-2.9-2.9-4-6.1-3.7-2,.2-1.5,1.7-1.6,3.7h0v.1Z"/>
      <path class="st5" d="M233.3,235.1c0,.4-.2.7-.8.7s-.7-.4-.7-.8.3-.7.8-.7.7.4.7.8Z"/>
      <path class="st0" d="M385.5,137.9c-.3-8.7-7.686-15.23-17-15.7-5.081-.256-8.3,2.7-9.6,5.4s-1.292.696-1.6,0c-1.558-3.519-6.6-5.1-9.9-5.1-9.1,0-16.7,6.9-17,15.4v.5c0,4.4,1.9,8.5,5.2,11.6.3.3,13.4,11.3,19.5,16.2,1.6,1.3,4.1,1.3,5.8,0,6-4.9,18.9-15.7,19.5-15.9v-.3c3.3-2.8,5.2-6.9,5.2-11.6v-.5h-.1Z"/>
      <path class="st9" d="M336.3,91c-1.8-4.3-6.9-6.3-11.5-4.4-1.5.6-3.4,2.6-3.7,4.6,0,.4-.5.7-.8.3-1.7-1.1-4.3-1.2-5.9-.6-4.5,1.8-7,6.8-5.5,11.1v.3c.9,2.2,2.7,3.8,4.9,4.7.2,0,8.9,3,12.8,4.2,1.1.3,2.3-.2,2.9-1.1,2.1-3.6,6.4-11.6,6.6-11.8h0c1.1-2.2,1.3-4.6.4-6.9v-.3h-.2v-.1Z"/>
      <path class="st14" d="M382.4,92.9c1.9-4.3,0-9.4-4.6-11.6-1.5-.7-4.2-.9-5.9.3-.3.3-.8,0-.8-.4-.3-2-2-4-3.6-4.8-4.4-2.2-9.7-.7-11.8,3.3v.2c-1.1,2.1-1.2,4.5-.3,6.8,0,.2,3.9,8.7,5.6,12.5.5,1,1.7,1.6,2.8,1.4,4-.9,12.7-3,13.1-3h0c2.2-.7,4.1-2.2,5.2-4.4v-.2h.3v-.1Z"/>
      <rect class="st5" x="466.5" y="137" width="191" height="191" rx="39" ry="39"/>
      <path class="st1" d="M256.7,158.9c-1.3,8.4-12,14.9-25,14.9s-24.4-7-25.1-15.8l-45.8,2.7c-3,.2-5.4,2.7-5.4,5.7v32.2c0,3.5,3.1,6.2,6.6,5.7l11.2-1.7c3.7-.6,7,2.5,6.6,6.2l-8.5,87.8c-.3,3.3,2.2,6.2,5.5,6.3l94.2,3c3.2.1,5.9-2.5,5.9-5.7v-87.7c0-3.6,3.4-6.4,6.9-5.6l12.6,2.6c3.6.7,6.9-2,6.9-5.6v-31.2c0-2.8-2-5.1-4.7-5.6l-42.1-8.1h.2v-.1Z"/>
      <path class="st7" d="M222.9,224.4c.6,2.4-1.4,4.9-3.5,5.4s-4.9-.9-5.4-3.3c-.6-2.4,1.1-5.6,3.2-6.1,2.8-.7,5.2,1.6,5.8,4h-.1Z"/>
      <path class="st7" d="M233.7,224.5c-.8,2.3.9,5,2.9,5.7s4.9-.4,5.8-2.7c.8-2.3-.5-5.7-2.5-6.4-2.7-1-5.4,1-6.2,3.4Z"/>
      <path class="st7" d="M243.8,238.1c-.4,7-7.4,9.3-16.7,8.8-9.4-.5-15.9-3.5-15.5-10.5.4-8.2,5.9-14.4,16.8-13.8,10.9.6,15.9,6.8,15.4,15.6h0v-.1Z"/>
      <path class="st3" d="M225.5,235c-.1,2-1.5,4.2-3.3,4.1-1.8,0-4.5-1.9-4.4-4.9.2-2.9,3.3-3.7,6.4-3,1.9.4,1.3,1.8,1.2,3.9h.1v-.1Z"/>
      <path class="st5" d="M222.2,234.5c0,.4,0,.7.7.8.6,0,.7-.3.8-.7,0-.4-.2-.7-.7-.8-.5,0-.7.3-.8.7Z"/>
      <path class="st3" d="M230,235.3c-.1,2,1,4.3,2.8,4.4,1.8,0,4.7-1.4,4.9-4.5.2-2.9-2.9-4-6.1-3.7-2,.2-1.5,1.7-1.6,3.7h0v.1Z"/>
      <path class="st5" d="M233.3,235.1c0,.4-.2.7-.8.7s-.7-.4-.7-.8.3-.7.8-.7.7.4.7.8Z"/>
      <path class="st10" d="M385.5,137.9c-.3-8.7-7.702-15.173-17-15.7-4.519-.256-8.189,2.858-9.6,5.4-.812,1.462-1.3.7-1.6,0-1.6-3.5-6.6-5.1-9.9-5.1-9.1,0-16.7,6.9-17,15.4v.5c0,4.4,1.9,8.5,5.2,11.6.3.3,13.4,11.3,19.5,16.2,1.6,1.3,4.1,1.3,5.8,0,6-4.9,18.9-15.7,19.5-15.9v-.3c3.3-2.8,5.2-6.9,5.2-11.6v-.5h-.1Z"/>
      <path class="st4" d="M336.3,91c-1.8-4.3-6.9-6.3-11.5-4.4-1.5.6-3.4,2.6-3.7,4.6,0,.4-.5.7-.8.3-1.7-1.1-4.3-1.2-5.9-.6-4.5,1.8-7,6.8-5.5,11.1v.3c.9,2.2,2.7,3.8,4.9,4.7.2,0,8.9,3,12.8,4.2,1.1.3,2.3-.2,2.9-1.1,2.1-3.6,6.4-11.6,6.6-11.8h0c1.1-2.2,1.3-4.6.4-6.9v-.3h-.2v-.1Z"/>
      <path class="st12" d="M382.4,92.9c1.9-4.3,0-9.4-4.6-11.6-1.5-.7-4.2-.9-5.9.3-.3.3-.8,0-.8-.4-.3-2-2-4-3.6-4.8-4.4-2.2-9.7-.7-11.8,3.3v.2c-1.1,2.1-1.2,4.5-.3,6.8,0,.2,3.9,8.7,5.6,12.5.5,1,1.7,1.6,2.8,1.4,4-.9,12.7-3,13.1-3h0c2.2-.7,4.1-2.2,5.2-4.4v-.2h.3v-.1Z"/>
      <path class="st11" d="M160.2,346.4c4.3,14.9-7.1,31.2-20.2,35-13.1,3.8-30.9-4.1-35.2-18.9-4.3-14.9,4.7-35.4,17.8-39.2,17.4-5.1,33.3,8.3,37.6,23.1h0Z"/>
      <path class="st11" d="M167.3,346.4c-4.3,14.9,7.1,31.2,20.2,35,13.1,3.8,30.9-4.1,35.2-18.9,4.3-14.9-4.7-35.4-17.8-39.2-17.4-5.1-33.3,8.3-37.6,23.1h0Z"/>
      <path class="st5" d="M262,461c0,41.3-41.9,56.7-99,56.7s-98.1-15.4-98.1-56.7,40.9-90.6,98.1-90.6,99,39,99,90.6Z"/>
      <path class="st2" d="M163.4,526.1c67.5,0,117-19,117-70s-49.5-112-117-112-115.9,52.6-115.9,112,48.4,70,115.9,70ZM160.8,506.5c49.7,0,86.1-13.9,86.1-51.3s-36.4-82-86.1-82-85.3,38.5-85.3,82,35.6,51.3,85.3,51.3h0Z"/>
      <path class="st11" d="M408.2,346.4c4.3,14.9-7.1,31.2-20.2,35s-30.9-4.1-35.2-18.9c-4.3-14.9,4.7-35.4,17.8-39.2,17.4-5.1,33.3,8.3,37.6,23.1h0Z"/>
      <path class="st11" d="M415.3,346.4c-4.3,14.9,7.1,31.2,20.2,35s30.9-4.1,35.2-18.9c4.3-14.9-4.7-35.4-17.8-39.2-17.4-5.1-33.3,8.3-37.6,23.1h0Z"/>
      <path class="st5" d="M510,461c0,41.3-41.9,56.7-99,56.7s-98.1-15.4-98.1-56.7,40.9-90.6,98.1-90.6,99,39,99,90.6Z"/>
      <path class="st2" d="M411.4,526.1c67.5,0,117-19,117-70s-49.5-112-117-112-115.9,52.6-115.9,112,48.4,70,115.9,70h0ZM408.8,506.5c49.7,0,86.1-13.9,86.1-51.3s-36.4-82-86.1-82-85.3,38.5-85.3,82,35.6,51.3,85.3,51.3Z"/>
    </g>
  </g>
</svg>