<?xml version="1.0" encoding="UTF-8"?>
<svg id="_레이어_1" xmlns="http://www.w3.org/2000/svg" version="1.1" xmlns:xlink="http://www.w3.org/1999/xlink" viewBox="0 0 746 340">
  <!-- Generator: Adobe Illustrator 29.1.0, SVG Export Plug-In . SVG Version: 2.1.0 Build 142)  -->
  <defs>
    <style>
      .st0 {
        fill: #256fc5;
      }

      .st0, .st1, .st2, .st3 {
        fill-rule: evenodd;
      }

      .st4 {
        fill: url(#_무제_그라디언트);
      }

      .st1, .st5 {
        fill: #222327;
      }

      .st6 {
        fill: #3475c2;
      }

      .st7 {
        fill: #3786e2;
      }

      .st8 {
        fill: #f5c498;
      }

      .st9 {
        fill: #54b858;
      }

      .st10, .st2 {
        fill: #fff;
      }

      .st11 {
        fill: #dc9759;
      }

      .st12 {
        fill: none;
      }

      .st3 {
        fill: #2d68ae;
      }

      .st13 {
        fill: url(#_무제_그라디언트_2);
      }

      .st14 {
        fill: #f3d6dd;
      }

      .st15 {
        fill: #1a1a1c;
      }

      .st16 {
        fill: #d7a37e;
      }

      .st17 {
        fill: #ffe7d1;
      }

      .st18 {
        clip-path: url(#clippath);
      }

      .st19 {
        fill: url(#_무제_그라디언트_3);
      }
    </style>
    <clipPath id="clippath">
      <rect class="st12" width="746" height="340"/>
    </clipPath>
    <linearGradient id="_무제_그라디언트" data-name="무제 그라디언트" x1="373" y1="-519.5" x2="373" y2="-812.3" gradientTransform="translate(0 -316) scale(1 -1)" gradientUnits="userSpaceOnUse">
      <stop offset="0" stop-color="#e18745"/>
      <stop offset="1" stop-color="#d7a37e" stop-opacity="0"/>
    </linearGradient>
    <linearGradient id="_무제_그라디언트_2" data-name="무제 그라디언트 2" x1="204.5" y1="-234.5" x2="204.5" y2="-311" gradientTransform="translate(412.4 -130.3) rotate(10.1) scale(1 -1)" gradientUnits="userSpaceOnUse">
      <stop offset="0" stop-color="#32a737"/>
      <stop offset="1" stop-color="#54b858" stop-opacity="0"/>
    </linearGradient>
    <linearGradient id="_무제_그라디언트_3" data-name="무제 그라디언트 3" x1="351.1" y1="-125.9" x2="351.1" y2="-202.4" gradientTransform="translate(392 -73.8) rotate(20.1) scale(1 -1) skewX(-.2)" gradientUnits="userSpaceOnUse">
      <stop offset="0" stop-color="#32a737"/>
      <stop offset="1" stop-color="#54b858" stop-opacity="0"/>
    </linearGradient>
  </defs>
  <g class="st18">
    <g>
      <path class="st17" d="M66.1,92l83.7-21.9c4.3-1.1,8.6,1.4,9.7,5.7l43.4,168c1.1,4.3-1.5,8.7-5.7,9.8l-83.7,21.9c-4.3,1.1-8.6-1.4-9.7-5.7L60.4,101.8c-1.1-4.3,1.5-8.7,5.7-9.8Z"/>
      <path class="st17" d="M174.5,160.4c-1.1-4.3,1.5-8.7,5.7-9.8l42.1-11c4.3-1.1,8.6,1.4,9.7,5.7l24,92.9-57.6,15.1-24-92.9h.1Z"/>
      <path class="st17" d="M20.1,187.1c-1.1-4.3,1.5-8.7,5.7-9.8l49.3-12.9c4.3-1.1,8.6,1.4,9.7,5.7l27.3,105.8-64.8,16.9-27.3-105.8h.1Z"/>
      <path class="st8" d="M84,104.5l8.3-2.2c2.1-.6,4.3.7,4.9,2.9l2.8,10.8c.6,2.1-.7,4.3-2.9,4.9l-8.3,2.2c-2.1.6-4.3-.7-4.9-2.9l-2.8-10.8c-.6-2.1.7-4.3,2.9-4.9Z"/>
      <path class="st8" d="M108,98.3l8.3-2.2c2.1-.6,4.3.7,4.9,2.9l2.8,10.8c.6,2.1-.7,4.3-2.9,4.9l-8.3,2.2c-2.1.6-4.3-.7-4.9-2.9l-2.8-10.8c-.6-2.1.7-4.3,2.9-4.9Z"/>
      <path class="st8" d="M132,92l8.3-2.2c2.1-.6,4.3.7,4.9,2.9l2.8,10.8c.6,2.1-.7,4.3-2.9,4.9l-8.3,2.2c-2.1.6-4.3-.7-4.9-2.9l-2.8-10.8c-.6-2.1.7-4.3,2.9-4.9Z"/>
      <path class="st8" d="M91.3,132.7l8.3-2.2c2.1-.6,4.3.7,4.9,2.9l2.8,10.8c.6,2.1-.7,4.3-2.9,4.9l-8.3,2.2c-2.1.6-4.3-.7-4.9-2.9l-2.8-10.8c-.6-2.1.7-4.3,2.9-4.9Z"/>
      <path class="st8" d="M115.3,126.4l8.3-2.2c2.1-.6,4.3.7,4.9,2.9l2.8,10.8c.6,2.1-.7,4.3-2.9,4.9l-8.3,2.2c-2.1.6-4.3-.7-4.9-2.9l-2.8-10.8c-.6-2.1.7-4.3,2.9-4.9Z"/>
      <path class="st8" d="M37.3,186.5l8.3-2.2c2.1-.6,4.3.7,4.9,2.9l2.8,10.8c.6,2.1-.7,4.3-2.9,4.9l-8.3,2.2c-2.1.6-4.3-.7-4.9-2.9l-2.8-10.8c-.6-2.1.7-4.3,2.9-4.9Z"/>
      <path class="st8" d="M61.3,180.2l8.3-2.2c2.1-.6,4.3.7,4.9,2.9l2.8,10.8c.6,2.1-.7,4.3-2.9,4.9l-8.3,2.2c-2.1.6-4.3-.7-4.9-2.9l-2.8-10.8c-.6-2.1.7-4.3,2.9-4.9Z"/>
      <path class="st8" d="M188.3,161.5l8.3-2.2c2.1-.6,4.3.7,4.9,2.9l2.8,10.8c.6,2.1-.7,4.3-2.9,4.9l-8.3,2.2c-2.1.6-4.3-.7-4.9-2.9l-2.8-10.8c-.6-2.1.7-4.3,2.9-4.9Z"/>
      <path class="st8" d="M212.3,155.2l8.3-2.2c2.1-.6,4.3.7,4.9,2.9l2.8,10.8c.6,2.1-.7,4.3-2.9,4.9l-8.3,2.2c-2.1.6-4.3-.7-4.9-2.9l-2.8-10.8c-.6-2.1.7-4.3,2.9-4.9Z"/>
      <path class="st8" d="M139.2,120.2l8.3-2.2c2.1-.6,4.3.7,4.9,2.9l2.8,10.8c.6,2.1-.7,4.3-2.9,4.9l-8.3,2.2c-2.1.6-4.3-.7-4.9-2.9l-2.8-10.8c-.6-2.1.7-4.3,2.9-4.9Z"/>
      <ellipse class="st16" cx="373" cy="349.9" rx="373" ry="146.4"/>
      <ellipse class="st4" cx="373" cy="349.9" rx="373" ry="146.4"/>
      <path class="st5" d="M316.9,150.3c3,16.8,22.7,18.9,32.6,18.3l23,32.9c-.4,3.6-12.5,19.1-57,2.7-50.8-18.7-43-63.9-29.2-70,18.2-8.1,26.8-4.8,30.5,16.2h.1Z"/>
      <path class="st10" d="M484.3,117.3c0,42.4-40.9,58.2-96.7,58.2s-95.8-15.8-95.8-58.2,40-93.1,95.8-93.1,96.7,40.1,96.7,93.1Z"/>
      <path class="st10" d="M336.7,224.8c0-18.1,6.5-45.4,12.3-56.8h80.8c5.6,10.1,11.1,35.6,10.7,56.8-.5,26.5-27.6,28.4-52.7,29.3-25.1,1-51.1-6.7-51.1-29.3h0Z"/>
      <path class="st10" d="M346.7,259.4c-5.1-9.5-10-14.9-10-38l34.2,10c5.4,0,16.5,1.9,17.6,10.4,1.5,10.7-3.4,23.9-5.8,25.5-1.9,1.3-8.3,1-11.3.7l-11.5-2.2c-4.2,1.9-8.7,2.2-13.3-6.4h0Z"/>
      <path class="st10" d="M430.5,259.4c5.1-9.5,10-14.9,10-38l-34.2,10c-5.4,0-16.5,1.9-17.6,10.4-1.5,10.7,3.4,23.9,5.8,25.5,1.9,1.3,8.3,1,11.3.7l11.5-2.2c4.2,1.9,8.7,2.2,13.3-6.4h0Z"/>
      <path class="st5" d="M349.3,172.4l-3.2-.5-4.9,17.4,1.2-.5,7-16.4h-.1Z"/>
      <path class="st10" d="M383.8,266.5c0,4.8-4.2,7.1-17.3,7.1s-21.2-1.7-21.2-6.5.9-10.2,18.7-10.2,19.8,4.8,19.8,9.6Z"/>
      <path class="st10" d="M394.5,266.5c0,4.8,4.2,7.1,17.3,7.1s21.2-1.7,21.2-6.5-.9-10.2-18.7-10.2-19.8,4.8-19.8,9.6Z"/>
      <path class="st5" d="M431.1,168.1h0c9.9-3.9,21.1.9,24.9,10.8l3.9,10.1c3.9,9.9-1,21.1-10.9,25.1h0c-9.9,3.9-21.1-.9-24.9-10.8l-3.9-10.1c-3.9-9.9,1-21.1,10.9-25.1Z"/>
      <path class="st5" d="M384.9,26.1c3.6,12.4-5.9,26-16.7,29.1-10.8,3.2-25.5-3.4-29.1-15.7-3.6-12.4,3.9-29.5,14.7-32.6,14.4-4.2,27.5,6.9,31.1,19.2Z"/>
      <path class="st5" d="M390.8,26.1c-3.6,12.4,5.9,26,16.7,29.1,10.8,3.2,25.5-3.4,29.1-15.7,3.6-12.4-3.9-29.5-14.7-32.6-14.4-4.2-27.5,6.9-31.1,19.2Z"/>
      <path class="st14" d="M459,116.9c0,32.2-31.1,44.1-73.6,44.1s-72.8-12-72.8-44.1,30.4-70.6,72.8-70.6,73.6,30.3,73.6,70.6Z"/>
      <path class="st5" d="M383.8,73.3c-27,0-36.9-9.5-38.5-15.1l12.8-14,27.8-4.8,38.5,18.9c-2.3,4.5-13.6,15.1-40.7,15.1h.1Z"/>
      <path class="st5" d="M371.2,110.1c0,10.3-6.6,21.6-15.8,21.6s-24.1-8.4-24.1-23.8,16.1-19.6,32.6-16.9c10.2,1.6,7.2,8.8,7.2,19.1h0Z"/>
      <path class="st10" d="M363.5,109.1c0,1.5-.5,2.8-2.8,2.8s-2.8-1.3-2.8-2.8.9-2.8,2.8-2.8,2.8,1.3,2.8,2.8Z"/>
      <path class="st5" d="M399.2,110.1c0,10.3,6.6,21.6,15.8,21.6s24.1-8.4,24.1-23.8-16.1-19.6-32.6-16.9c-10.2,1.6-7.2,8.8-7.2,19.1h0Z"/>
      <path class="st10" d="M406.9,109.1c0,1.5.5,2.8,2.8,2.8s2.8-1.3,2.8-2.8-.9-2.8-2.8-2.8-2.8,1.3-2.8,2.8Z"/>
      <path class="st5" d="M374.7,124.9c-.6-.9-1.8-1.1-2.7-.5-.9.6-1.1,1.8-.5,2.7l3.2-2.2ZM384.9,122.8l1.8-.6c-.3-.8-1-1.3-1.8-1.3s-1.6.5-1.8,1.3l1.8.6ZM398.3,127.1c.6-.9.4-2.1-.5-2.7s-2.1-.4-2.7.5l3.2,2.2ZM371.5,127.1c.5.7,1.4,1.7,2.6,2.5s2.9,1.5,4.8,1.5v-3.9c-1,0-1.9-.4-2.7-.9-.8-.5-1.4-1.2-1.6-1.5l-3.2,2.2h.1ZM379,131.2c2.4,0,4.2-1.7,5.3-3.2,1.2-1.5,2-3.4,2.4-4.6l-3.7-1.3c-.3.9-1,2.4-1.8,3.5-.9,1.2-1.7,1.6-2.2,1.6v3.9h0ZM383.1,123.4c.4,1.2,1.2,3,2.4,4.6,1.1,1.5,2.9,3.2,5.3,3.2v-3.9c-.5,0-1.3-.4-2.2-1.6-.9-1.1-1.5-2.6-1.8-3.5l-3.7,1.3h0ZM390.8,131.2c2,0,3.6-.7,4.8-1.5,1.2-.8,2.1-1.8,2.6-2.5l-3.2-2.2c-.2.3-.8,1-1.6,1.5-.8.5-1.7.9-2.7.9v3.9h.1Z"/>
      <path class="st5" d="M394.7,121.2c0,1.5-6.6,3.4-8.9,4h-1.6c-2.3-.6-8.9-2.5-8.9-4s5.4-3.7,9.7-3.7,9.7,1.9,9.7,3.7h0Z"/>
      <path class="st2" d="M431.3,172.4c-12.9,2.8-27.7,4.1-43.7,4.1s-28.1-1.1-40.1-3.4c-5.3,12.8-10.7,36.8-10.7,53.2s26.1,30.3,51.1,29.3c25.1-1,52.2-2.9,52.7-29.3.4-19.4-4.2-42.4-9.3-53.9Z"/>
      <path class="st1" d="M336.7,220.9c11,4,27.8,7.2,51.8,6.4,20.7-.6,38.3-3.2,51.9-6.2-.3-18.4-4.6-39.1-9.3-49.8-12.9,2.8-27.7,4.1-43.7,4.1s-28.1-1.1-40.1-3.4c-4.9,11.7-9.8,32.8-10.6,48.9h0Z"/>
      <path class="st7" d="M410.6,202.5c2.5-22.2,13.6-28.4,24.2-31.5,4.3-1.2,11.2-1.1,15,.5,4.5,2,9.6,5.9,13.4,15.1,3.7,9.2,8.5,22.9,10.6,36.9v.2c2.2,14,5.4,35.4-37.2,35.4s-28.2-36.4-26-56.6Z"/>
      <path class="st5" d="M429,216.8c-10.2-5.7-13.9-18.5-8.3-28.8l.5-.9c4.7-8.5,14.6-12.7,23.9-10.1,13,3.6,19.4,18.4,13,30.4l-1.4,2.7c-5.1,9.4-16.9,12.8-26.2,7.6l-1.5-.8h0Z"/>
      <path class="st15" d="M343.4,188.5c-1.7,2.2-4.1,16-5.4,22.1-.5,0-3.7-.9-4.3-1.1-.5-6.5,4.3-21,9.6-21h0Z"/>
      <path class="st10" d="M373.4,181h0c1.5,0,2.7,1.2,2.7,2.7v10.8c0,1.5-1.2,2.7-2.7,2.7h0c-1.5,0-2.7-1.2-2.7-2.7v-10.8c0-1.5,1.2-2.7,2.7-2.7Z"/>
      <path class="st0" d="M370.7,193.9v.6c0,1.5,1.2,2.7,2.7,2.7s2.7-1.2,2.7-2.7v-.6h-5.4Z"/>
      <path class="st10" d="M400.2,181h0c1.5,0,2.7,1.2,2.7,2.7v10.8c0,1.5-1.2,2.7-2.7,2.7h0c-1.5,0-2.7-1.2-2.7-2.7v-10.8c0-1.5,1.2-2.7,2.7-2.7Z"/>
      <path class="st0" d="M397.5,193.9v.6c0,1.5,1.2,2.7,2.7,2.7s2.7-1.2,2.7-2.7v-.6h-5.4Z"/>
      <path class="st10" d="M387.8,257.5c-1.6,12.4-5.9,14.5-10.2,15.1l1.6-10.2c2.1-2.9,9.4-11.3,8.6-4.8h0Z"/>
      <path class="st10" d="M389,257.7c1.6,12.4,6.4,15.7,16,15.7l-7.4-10.8c-2.1-2.9-9.4-11.3-8.6-4.8h0Z"/>
      <path class="st3" d="M452.4,233.3c1.3,1.5,2,3.5,2.2,5.8.4,4.6-4,6.6-10,7.1-6.1.5-10.6-.9-10.9-5.5-.2-2.2.2-4.2,1.2-5.9-.2-.2-.4-.5-.5-.8-.6-1.5.2-3.7,1.5-4.2,1.4-.5,2.8.2,3.6,1.2,1.1-.4,2.4-.7,3.8-.8s2.7,0,3.8.1c.5-1.3,1.9-2.4,3.5-2.1,1.4.3,2.5,2.3,2.2,3.9,0,.3-.2.6-.4.9v.3h0Z"/>
      <path class="st6" d="M442.6,238.7c.1,1.3-.6,2.9-1.7,2.9s-3.1-.8-3.2-2.8c-.1-1.9,1.8-2.7,3.9-2.5,1.3.1,1,1.1,1.1,2.4h0Z"/>
      <path class="st10" d="M440.5,238.7c0,.3.1.5.5.4.4,0,.5-.2.4-.5,0-.3-.2-.5-.5-.4-.3,0-.5.2-.4.5Z"/>
      <path class="st6" d="M445.5,238.5c.1,1.3,1,2.7,2.2,2.6,1.1,0,2.9-1.3,2.7-3.3-.1-1.9-2.2-2.4-4.2-1.9s-.8,1.2-.7,2.5h0Z"/>
      <path class="st10" d="M447.7,238.1c0,.3,0,.5-.4.5s-.5-.2-.5-.4c0-.3.1-.5.4-.5s.5.2.5.4Z"/>
      <path class="st11" d="M556.9,188.5l11.8,2.1c3.3.6,5.4,3.7,4.9,7l-5.5,31.6c-.6,3.3-3.7,5.4-6.9,4.9l-11.8-2.1c-3.3-.6-5.4-3.7-4.9-7l5.5-31.6c.6-3.3,3.7-5.4,6.9-4.9Z"/>
      <ellipse class="st9" cx="565.9" cy="174.1" rx="38" ry="38.3"/>
      <ellipse class="st13" cx="565.9" cy="174.1" rx="38" ry="38.3"/>
      <path class="st11" d="M654.5,213.9l11.2,4.1c3.1,1.1,4.7,4.6,3.6,7.7l-10.9,30.1c-1.1,3.1-4.6,4.7-7.7,3.6l-11.2-4.1c-3.1-1.1-4.7-4.6-3.6-7.7l10.9-30.1c1.1-3.1,4.6-4.7,7.7-3.6h0Z"/>
      <path class="st9" d="M678.9,165.3c19.7,7.2,29.9,29.2,22.7,49-7.2,19.9-29,30.1-48.7,22.9-19.7-7.2-29.9-29.2-22.7-49,7.2-19.9,29-30.1,48.7-22.9Z"/>
      <path class="st19" d="M678.9,165.3c19.7,7.2,29.9,29.2,22.7,49-7.2,19.9-29,30.1-48.7,22.9-19.7-7.2-29.9-29.2-22.7-49,7.2-19.9,29-30.1,48.7-22.9Z"/>
      <path class="st2" d="M387.6,175.6c55.8,0,96.7-15.8,96.7-58.2s-40.9-93.1-96.7-93.1-95.8,43.8-95.8,93.1,40,58.2,95.8,58.2h0ZM385.4,159.3c41,0,71.1-11.6,71.1-42.6s-30.1-68.2-71.1-68.2-70.4,32.1-70.4,68.2,29.4,42.6,70.4,42.6Z"/>
    </g>
  </g>
</svg>