<?xml version="1.0" encoding="UTF-8"?>
<svg id="_레이어_1" xmlns="http://www.w3.org/2000/svg" version="1.1" xmlns:xlink="http://www.w3.org/1999/xlink" viewBox="0 0 572 444">
  <!-- Generator: Adobe Illustrator 29.1.0, SVG Export Plug-In . SVG Version: 2.1.0 Build 142)  -->
  <defs>
    <style>
      .st0 {
        fill: #374151;
      }

      .st1, .st2 {
        fill: #292424;
      }

      .st3 {
        fill: #3692ff;
      }

      .st3, .st4, .st2, .st5 {
        fill-rule: evenodd;
      }

      .st6, .st4 {
        fill: #fff;
      }

      .st7 {
        fill: #f3f4f6;
      }

      .st8, .st9, .st10 {
        fill: none;
      }

      .st11 {
        fill: #b9d9ff;
      }

      .st12 {
        clip-path: url(#clippath-1);
      }

      .st13 {
        fill: #8698ff;
      }

      .st9 {
        stroke: #ff68cc;
        stroke-width: 5.774px;
      }

      .st14 {
        clip-path: url(#clippath-3);
      }

      .st15 {
        fill: #5f76ff;
      }

      .st10 {
        stroke: #ff46c0;
        stroke-width: 3.849px;
      }

      .st16 {
        fill: #4e93ef;
      }

      .st17 {
        fill: #111827;
      }

      .st5, .st18 {
        fill: #e02d2c;
      }

      .st19 {
        clip-path: url(#clippath-2);
      }

      .st20 {
        fill: #ffd875;
      }

      .st21 {
        clip-path: url(#clippath);
      }

      .st22 {
        opacity: .5;
      }

      .st23 {
        fill: #ffb9e3;
      }

      .st24 {
        fill: #0c7aff;
      }
    </style>
    <clipPath id="clippath">
      <rect class="st8" x="-7" width="579" height="444"/>
    </clipPath>
    <clipPath id="clippath-1">
      <rect class="st8" x="-166" y="282" width="293" height="162"/>
    </clipPath>
    <clipPath id="clippath-2">
      <rect class="st8" x="451" y="282" width="293" height="162"/>
    </clipPath>
    <clipPath id="clippath-3">
      <path class="st8" d="M139.719,293.634c0-6.627,5.373-12,12-12h276.516v162.366H151.719c-6.627,0-12-5.373-12-12v-138.366Z"/>
    </clipPath>
  </defs>
  <g class="st21">
    <g>
      <rect class="st7" x="-7" width="588" height="444"/>
      <g class="st12">
        <g class="st22">
          <path class="st24" d="M-50.632,328.56c0-4.77,3.867-8.637,8.637-8.637h117.48c4.77,0,8.637,3.867,8.637,8.637v70.011c0,3.18-2.578,5.758-5.758,5.758H-44.874c-3.18,0-5.758-2.578-5.758-5.758v-70.011Z"/>
          <path class="st3" d="M-129.363,305c-4.77,0-8.637,3.867-8.637,8.637v173.783c0,3.18,2.578,5.758,5.758,5.758H88.73c3.18,0,5.758-2.578,5.758-5.758v-145.45c0-3.18-2.578-5.758-5.758-5.758H-44v-22.575c0-4.77-3.867-8.637-8.637-8.637h-76.726Z"/>
        </g>
      </g>
      <g class="st19">
        <g class="st22">
          <path class="st24" d="M566.368,328.56c0-4.77,3.867-8.637,8.637-8.637h117.48c4.77,0,8.637,3.867,8.637,8.637v70.011c0,3.18-2.578,5.758-5.758,5.758h-123.238c-3.18,0-5.758-2.578-5.758-5.758v-70.011h0Z"/>
          <path class="st3" d="M487.637,305c-4.77,0-8.637,3.867-8.637,8.637v173.783c0,3.18,2.578,5.758,5.758,5.758h220.972c3.18,0,5.758-2.578,5.758-5.758v-145.45c0-3.18-2.578-5.758-5.758-5.758h-132.73v-22.575c0-4.77-3.867-8.637-8.637-8.637h-76.726,0Z"/>
        </g>
      </g>
    </g>
  </g>
  <g class="st14">
    <g>
      <path class="st24" d="M251.087,328.194c0-4.77,3.867-8.637,8.637-8.637h117.48c4.77,0,8.637,3.867,8.637,8.637v70.012c0,3.18-2.578,5.758-5.758,5.758h-123.238c-3.18,0-5.758-2.578-5.758-5.758v-70.012Z"/>
      <path class="st3" d="M172.356,304.634c-4.77,0-8.637,3.867-8.637,8.637v173.784c0,3.18,2.578,5.757,5.758,5.757h220.972c3.18,0,5.758-2.577,5.758-5.757v-145.451c0-3.18-2.578-5.758-5.758-5.758h-132.73v-22.575c0-4.77-3.866-8.637-8.637-8.637h-76.726Z"/>
    </g>
  </g>
  <path class="st13" d="M67.837,123.251c0-6.628,5.373-12,12-12h116.995v131.295h-116.995c-6.627,0-12-5.372-12-12,0,0,0-107.295,0-107.295Z"/>
  <path class="st18" d="M115.496,144.408c-.07-.611-.032-1.231.111-1.83,1.148-4.816,7.67-5.599,9.869-1.185.274.549.45,1.143.519,1.754l6.164,54.167c.33,2.901-1.752,5.536-4.652,5.884-2.899.348-5.517-1.722-5.847-4.623l-6.164-54.167h0Z"/>
  <path class="st4" d="M121.699,133.836c1.977,3.944-.582,8.694-4.975,9.233-.692.085-1.178-.579-1.012-1.259l2.733-11.232c.181-.743,1.186-.865,1.527-.185l1.727,3.443Z"/>
  <path class="st5" d="M120.614,131.686c.421.839-.123,1.849-1.058,1.964s-1.69-.739-1.465-1.657l.346-1.415c.182-.742,1.186-.865,1.526-.186l.651,1.294h0Z"/>
  <path class="st1" d="M139.878,143.146c.07-.611.245-1.205.519-1.754,2.201-4.413,8.722-3.628,9.869,1.188.143.6.18,1.219.111,1.831l-6.183,54.164c-.331,2.901-2.95,4.97-5.849,4.621s-4.981-2.984-4.65-5.885l6.183-54.165Z"/>
  <path class="st4" d="M150.288,141.098c.235,1.61-.897,2.072-1.871,2.009-.589-.038-6.268-.893-6.943-.976-.778-.096-1.133-.957-.783-1.655l5.067-10.099c.342-.68,1.347-.557,1.528.186l3.002,10.536h0Z"/>
  <path class="st2" d="M147.685,131.674c.225.919-.53,1.772-1.466,1.657-.934-.115-1.478-1.126-1.056-1.965l.65-1.293c.341-.678,1.345-.555,1.526.187l.346,1.414h0Z"/>
  <path class="st15" d="M109.709,173.831c0-6.628,5.373-12,12-12h34.395v58.719h-34.395c-6.627,0-12-5.373-12-12v-34.719Z"/>
  <path class="st20" d="M109.709,188.726c0-5.783,4.688-10.471,10.471-10.471h35.924v20.942h-35.924c-5.783,0-10.471-4.688-10.471-10.471h0Z"/>
  <path class="st11" d="M226.372,123.251c0-6.628,5.373-12,12-12h116.995v131.295h-116.995c-6.627,0-12-5.372-12-12v-107.295h0Z"/>
  <path class="st7" d="M260.816,149.783c0-6.322,4.904-11.559,11.212-11.974l35.586-2.344c6.922-.456,12.788,5.036,12.788,11.974v56.524c0,6.628-5.372,12-12,12h-35.586c-6.627,0-12-5.372-12-12v-54.18h0Z"/>
  <path class="st16" d="M260.816,151.054c0-6.822,5.68-12.272,12.497-11.989l36.287,1.503c6.429.266,11.503,5.555,11.503,11.989v53.961c0,6.878-5.769,12.349-12.638,11.983l-36.287-1.932c-6.37-.34-11.362-5.604-11.362-11.983v-53.532Z"/>
  <path class="st6" d="M296.918,146.906c0-3.782,3.147-6.806,6.927-6.654,3.571.144,6.392,3.08,6.392,6.654v7.591c0,2.546-2.787,4.11-4.96,2.783-1.043-.637-2.355-.637-3.399,0-2.172,1.327-4.96-.237-4.96-2.783v-7.591h0Z"/>
  <path class="st23" d="M379.985,123.251c0-6.628,5.372-12,12-12h116.995v131.295h-116.995c-6.628,0-12-5.372-12-12,0,0,0-107.295,0-107.295Z"/>
  <path class="st10" d="M437.879,179.78c.2-.669,1.682-2.005,6.007-2.005s6.006,1.336,6.307,2.005"/>
  <path class="st9" d="M418.87,173.872c1.313-.325,1.982-1.269,2.225-1.643.112-.171.215-.356.26-.436.006-.01.01-.019.014-.025.014-.025.024-.042.03-.053.516-.692,1.37-1.359,2.405-1.859,1.062-.514,2.054-.726,2.656-.726,6.116,0,10.722,4.488,10.914,9.879v.369c0,2.902-1.182,5.415-3.172,7.148l-6.626,5.59c-.403.332-.813.671-1.226,1.012-2.856,2.359-5.867,4.846-7.911,6.5-.29.215-.808.215-1.099,0-2.431-1.967-6.295-5.172-9.594-7.925-1.653-1.379-3.16-2.641-4.267-3.571l-1.758-1.479c-2.145-2.009-3.316-4.603-3.316-7.275v-.367c.192-5.129,4.961-9.672,10.914-9.672,1.518,0,3.827.938,5.222,2.423.004.005.035.045.116.158.008.011.017.024.027.039.092.128.27.38.467.61.388.454,1.688,1.805,3.719,1.303h0Z"/>
  <path class="st9" d="M470.097,173.872c1.313-.325,1.982-1.269,2.225-1.643.111-.171.215-.356.259-.436.006-.01.011-.019.015-.025.014-.025.024-.042.03-.053.516-.692,1.369-1.359,2.404-1.859,1.063-.514,2.055-.726,2.656-.726,6.117,0,10.722,4.488,10.915,9.879v.369c0,2.902-1.183,5.415-3.173,7.148l-6.625,5.59c-.403.332-.813.671-1.226,1.012-2.856,2.359-5.867,4.846-7.912,6.5-.29.215-.808.215-1.098,0-2.431-1.967-6.295-5.172-9.594-7.925-1.654-1.379-3.161-2.641-4.268-3.571l-1.758-1.479c-2.144-2.009-3.316-4.603-3.316-7.275v-.367c.192-5.129,4.962-9.672,10.915-9.672,1.517,0,3.827.938,5.222,2.423.004.005.035.045.115.158.008.011.018.024.028.039.091.128.27.38.466.61.389.454,1.689,1.805,3.72,1.303h0Z"/>
  <path class="st6" d="M399.906,148.111c.321-1.907,3.06-1.907,3.381,0,.09.536.429.997.913,1.244l.51.258c2.075,1.056,2.075,4.021,0,5.077l-.51.259c-.484.246-.823.707-.913,1.243-.321,1.907-3.06,1.907-3.381,0-.09-.536-.429-.997-.914-1.243l-.509-.259c-2.075-1.056-2.075-4.021,0-5.077l.509-.258c.485-.247.824-.708.914-1.244Z"/>
  <path class="st6" d="M416.409,141.006c.199-1.196,1.918-1.196,2.117,0,.055.334.265.622.566.778l.328.169c1.305.673,1.305,2.539,0,3.212l-.328.169c-.301.156-.511.444-.566.778-.199,1.196-1.918,1.196-2.117,0-.055-.334-.265-.622-.566-.778l-.328-.169c-1.305-.673-1.305-2.539,0-3.212l.328-.169c.301-.156.511-.444.566-.778Z"/>
  <path class="st0" d="M403.39,271.173c-1.322-2.054-1.941-4.371-1.92-6.661.051-5.378,7.11-7.371,10.019-2.849l83.269,129.425c-5.494,3.665-12.845,2.134-16.419-3.421l-74.95-116.495h.001Z"/>
  <path class="st3" d="M411.159,261.144c1.581,2.456,3.01,4.706,4.289,6.75l-9.871,6.517c-.041.028-.096.016-.122-.026l-2.062-3.205c-2.074-3.223-2.421-7.092-1.273-10.489,1.412-4.182,6.671-3.229,9.039.453h0Z"/>
  <path class="st17" d="M406.358,275.749c-.445-.691-.251-1.621.432-2.077l8.658-5.778,1.608,2.502-8.657,5.778c-.683.456-1.597.266-2.041-.425h0Z"/>
  <path class="st4" d="M121.147,132.736l3.735,7.447c.337.672-.07,1.478-.81,1.607l-7.349,1.279,2.496-8.777,1.927-1.557h0Z"/>
</svg>