<svg width="40" height="41" viewBox="0 0 40 41" fill="none" xmlns="http://www.w3.org/2000/svg">
<rect y="0.0168457" width="40" height="40.1354" rx="11.1782" fill="#3692FF"/>
<path d="M19.3143 11.1915C19.8136 12.9169 18.4934 14.8183 16.9801 15.2591C15.4668 15.7 13.3994 14.7856 12.9001 13.0601C12.4008 11.3346 13.4489 8.94388 14.9622 8.503C16.9801 7.91513 18.815 9.46597 19.3143 11.1915Z" fill="#222327"/>
<path d="M20.1466 11.1915C19.6473 12.9169 20.9675 14.8183 22.4808 15.2591C23.9941 15.7 26.0616 14.7856 26.5609 13.0601C27.0602 11.3346 26.012 8.94388 24.4987 8.503C22.4808 7.91513 20.6459 9.46597 20.1466 11.1915Z" fill="#222327"/>
<path d="M29.5167 23.7966C29.5167 28.1854 25.2133 29.8168 19.3432 29.8168C13.4731 29.8168 9.26709 28.1854 9.26709 23.7966C9.26709 18.6915 13.4731 14.1643 19.3432 14.1643C25.2133 14.1643 29.5167 18.3062 29.5167 23.7966Z" fill="#F3D6DD"/>
<path d="M17.4003 22.9301C17.4003 24.3675 16.4777 25.9444 15.1884 25.9444C13.8991 25.9444 11.8164 24.7732 11.8164 22.626C11.8164 20.609 14.0664 19.8916 16.3913 20.2599C17.8163 20.4857 17.4003 21.4927 17.4003 22.9301Z" fill="#222327"/>
<path d="M16.3221 22.785C16.3221 23.0007 16.2573 23.1754 15.933 23.1754C15.6088 23.1754 15.5439 23.0007 15.5439 22.785C15.5439 22.5694 15.6736 22.3947 15.933 22.3947C16.1924 22.3947 16.3221 22.5694 16.3221 22.785Z" fill="white"/>
<path d="M21.3223 22.9301C21.3223 24.3675 22.2449 25.9444 23.5342 25.9444C24.8235 25.9444 26.9062 24.7732 26.9062 22.626C26.9062 20.609 24.6563 19.8916 22.3313 20.2599C20.9064 20.4857 21.3223 21.4927 21.3223 22.9301Z" fill="#222327"/>
<path d="M22.4015 22.7852C22.4015 23.0008 22.4664 23.1756 22.7906 23.1756C23.1148 23.1756 23.1797 23.0008 23.1797 22.7852C23.1797 22.5696 23.05 22.3948 22.7906 22.3948C22.5312 22.3948 22.4015 22.5696 22.4015 22.7852Z" fill="white"/>
<path d="M17.875 25.0098C17.7964 24.8952 17.6399 24.866 17.5253 24.9445C17.4107 25.023 17.3815 25.1795 17.46 25.2941L17.875 25.0098ZM19.3174 24.7004L19.5554 24.6189C19.5205 24.5172 19.4249 24.4489 19.3174 24.4489C19.21 24.4489 19.1144 24.5172 19.0795 24.6189L19.3174 24.7004ZM21.1749 25.2941C21.2534 25.1795 21.2242 25.023 21.1096 24.9445C20.995 24.866 20.8385 24.8952 20.7599 25.0098L21.1749 25.2941ZM17.46 25.2941C17.5295 25.3955 17.6557 25.5315 17.8249 25.6437C17.9957 25.757 18.2239 25.855 18.4925 25.855V25.352C18.3485 25.352 18.2158 25.2994 18.103 25.2246C17.9886 25.1487 17.9086 25.0589 17.875 25.0098L17.46 25.2941ZM18.4925 25.855C18.823 25.855 19.0688 25.6192 19.2218 25.4162C19.3834 25.2019 19.4975 24.9508 19.5554 24.782L19.0795 24.6189C19.0342 24.7511 18.9422 24.9515 18.8201 25.1135C18.6895 25.2867 18.5744 25.352 18.4925 25.352V25.855ZM19.0795 24.782C19.1374 24.9508 19.2515 25.2019 19.4131 25.4162C19.5661 25.6192 19.8119 25.855 20.1424 25.855V25.352C20.0605 25.352 19.9454 25.2867 19.8148 25.1135C19.6927 24.9515 19.6006 24.7511 19.5554 24.6189L19.0795 24.782ZM20.1424 25.855C20.411 25.855 20.6392 25.757 20.81 25.6437C20.9792 25.5315 21.1054 25.3955 21.1749 25.2941L20.7599 25.0098C20.7263 25.0589 20.6463 25.1487 20.5319 25.2246C20.4191 25.2994 20.2863 25.352 20.1424 25.352V25.855Z" fill="#222327"/>
<path d="M20.6903 24.468C20.6903 24.6773 19.7483 24.9435 19.4313 25.0272C19.3635 25.0451 19.2936 25.0451 19.2259 25.0272C18.9088 24.9435 17.9668 24.6773 17.9668 24.468C17.9668 24.2165 18.7197 23.9475 19.3286 23.9475C19.9374 23.9475 20.6903 24.2165 20.6903 24.468Z" fill="#222327"/>
<path d="M19.166 17.7763C15.3818 17.7763 13.9911 16.4468 13.7661 15.6692L15.5661 13.7127L19.466 13.0354L24.8659 15.6692C24.5409 16.2963 22.9544 17.7763 19.166 17.7763Z" fill="#222327"/>
<path fill-rule="evenodd" clip-rule="evenodd" d="M19.6898 31.9992C27.5098 31.9992 33.2427 29.7952 33.2427 23.8659C33.2427 16.4484 27.5098 10.8528 19.6898 10.8528C11.8698 10.8528 6.2666 16.969 6.2666 23.8659C6.2666 29.7952 11.8698 31.9992 19.6898 31.9992ZM19.3823 29.7221C25.1345 29.7221 29.3515 28.1081 29.3515 23.7661C29.3515 18.3342 25.1345 14.2364 19.3823 14.2364C13.6301 14.2364 9.50854 18.7154 9.50854 23.7661C9.50854 28.1081 13.6301 29.7221 19.3823 29.7221Z" fill="white"/>
</svg>
